<svg width="24" height="24" viewBox="0 0 24 24" fill="none" xmlns="http://www.w3.org/2000/svg">
<path fill-rule="evenodd" clip-rule="evenodd" d="M5.25 11.9958C5.25 11.5816 5.58579 11.2458 6 11.2458H18C18.4142 11.2458 18.75 11.5816 18.75 11.9958C18.75 12.4101 18.4142 12.7458 18 12.7458H6C5.58579 12.7458 5.25 12.4101 5.25 11.9958Z" fill="#616161"/>
<path fill-rule="evenodd" clip-rule="evenodd" d="M12.5303 5.46967C12.8232 5.76256 12.8232 6.23744 12.5303 6.53033L7.06066 12L12.5303 17.4697C12.8232 17.7626 12.8232 18.2374 12.5303 18.5303C12.2374 18.8232 11.7626 18.8232 11.4697 18.5303L5.46967 12.5303C5.17678 12.2374 5.17678 11.7626 5.46967 11.4697L11.4697 5.46967C11.7626 5.17678 12.2374 5.17678 12.5303 5.46967Z" fill="#616161"/>
</svg>
