<svg width="40" height="40" viewBox="0 0 40 40" fill="none" xmlns="http://www.w3.org/2000/svg">
<circle cx="20" cy="20" r="19.5" fill="white" stroke="#E0E0E0"/>
<path fill-rule="evenodd" clip-rule="evenodd" d="M12.3986 12.3986C14.3432 10.4541 17.0317 9.25 20 9.25C22.9683 9.25 25.6568 10.4541 27.6014 12.3986L27.0711 12.9289L27.6014 12.3986C29.5459 14.3432 30.75 17.0317 30.75 20C30.75 22.9683 29.5459 25.6568 27.6014 27.6014C25.6568 29.5459 22.9683 30.75 20 30.75C17.0317 30.75 14.3432 29.5459 12.3986 27.6014L12.9289 27.0711L12.3986 27.6014C10.4541 25.6568 9.25 22.9683 9.25 20C9.25 17.0317 10.4541 14.3432 12.3986 12.3986L12.3986 12.3986ZM20 10.75C17.4455 10.75 15.134 11.7845 13.4593 13.4593C11.7845 15.134 10.75 17.4455 10.75 20C10.75 22.5545 11.7845 24.866 13.4593 26.5407C15.134 28.2155 17.4455 29.25 20 29.25C22.5545 29.25 24.866 28.2155 26.5407 26.5407C28.2155 24.866 29.25 22.5545 29.25 20C29.25 17.4455 28.2155 15.134 26.5407 13.4593C24.866 11.7845 22.5545 10.75 20 10.75Z" fill="#004CE8"/>
<path fill-rule="evenodd" clip-rule="evenodd" d="M25.5303 16.4697C25.8232 16.7626 25.8232 17.2374 25.5303 17.5303L19.5303 23.5303C19.2374 23.8232 18.7626 23.8232 18.4697 23.5303L15.4697 20.5303C15.1768 20.2374 15.1768 19.7626 15.4697 19.4697C15.7626 19.1768 16.2374 19.1768 16.5303 19.4697L19 21.9393L24.4697 16.4697C24.7626 16.1768 25.2374 16.1768 25.5303 16.4697Z" fill="#004CE8"/>
</svg>
