<svg width="24" height="24" viewBox="0 0 24 24" fill="none" xmlns="http://www.w3.org/2000/svg">
<path fill-rule="evenodd" clip-rule="evenodd" d="M5.14806 8.36693C6.88785 6.87624 9.30557 5.75 12 5.75C14.6943 5.75 17.112 6.8754 18.8519 8.36578C20.5623 9.83095 21.75 11.7704 21.75 13.5C21.75 15.2296 20.5623 17.169 18.8519 18.6342C17.112 20.1246 14.6943 21.25 12 21.25C9.30557 21.25 6.88785 20.1238 5.14806 18.6331C3.43777 17.1677 2.25 15.2282 2.25 13.5C2.25 11.7718 3.43777 9.83234 5.14806 8.36693ZM6.12403 9.506C4.57695 10.8316 3.75 12.3921 3.75 13.5C3.75 14.6079 4.57695 16.1684 6.12403 17.494C7.6416 18.7943 9.72388 19.75 12 19.75C14.2763 19.75 16.3586 18.7949 17.876 17.495C19.4229 16.1699 20.25 14.6094 20.25 13.5C20.25 12.3906 19.4229 10.83 17.876 9.50497C16.3586 8.2051 14.2763 7.25 12 7.25C9.72388 7.25 7.6416 8.20571 6.12403 9.506Z" fill="#1C1B1E"/>
<path fill-rule="evenodd" clip-rule="evenodd" d="M8.25 13.5C8.25 11.4289 9.92894 9.75 12 9.75C14.0711 9.75 15.75 11.4289 15.75 13.5C15.75 15.5711 14.0711 17.25 12 17.25C9.92894 17.25 8.25 15.5711 8.25 13.5ZM12 11.25C10.7574 11.25 9.75 12.2574 9.75 13.5C9.75 14.7426 10.7574 15.75 12 15.75C13.2426 15.75 14.25 14.7426 14.25 13.5C14.25 12.2574 13.2426 11.25 12 11.25Z" fill="#1C1B1E"/>
<path fill-rule="evenodd" clip-rule="evenodd" d="M6.195 5.02326C6.53168 4.78197 7.00022 4.8593 7.2415 5.19598L8.53875 7.00608C8.78004 7.34276 8.70271 7.81129 8.36604 8.05258C8.02936 8.29387 7.56082 8.21654 7.31953 7.87986L6.02228 6.06976C5.78099 5.73308 5.85832 5.26455 6.195 5.02326Z" fill="#1C1B1E"/>
<path fill-rule="evenodd" clip-rule="evenodd" d="M18.2494 5.24543C18.5861 5.48673 18.6634 5.95527 18.4221 6.29194L17.1248 8.10204C16.8835 8.43871 16.415 8.51604 16.0783 8.27474C15.7416 8.03345 15.6643 7.56491 15.9056 7.22823L17.2029 5.41813C17.4442 5.08146 17.9127 5.00414 18.2494 5.24543Z" fill="#1C1B1E"/>
<path fill-rule="evenodd" clip-rule="evenodd" d="M12.0044 2.75C12.4186 2.75 12.7544 3.08579 12.7544 3.5V6.50001C12.7544 6.91422 12.4186 7.25001 12.0044 7.25001C11.5902 7.25001 11.2544 6.91422 11.2544 6.50001V3.5C11.2544 3.08579 11.5902 2.75 12.0044 2.75Z" fill="#1C1B1E"/>
</svg>
