<svg width="24" height="24" viewBox="0 0 24 24" fill="none" xmlns="http://www.w3.org/2000/svg">
<path fill-rule="evenodd" clip-rule="evenodd" d="M2.31871 4.18643C2.44114 3.92042 2.70718 3.75 3.00001 3.75H21C21.2928 3.75 21.5589 3.92042 21.6813 4.18643C21.8037 4.45243 21.7602 4.76537 21.5697 4.9878L14.55 13.1861V21C14.55 21.2593 14.4161 21.5002 14.1959 21.637C13.9757 21.7739 13.7004 21.7873 13.4679 21.6725L9.86793 19.8947C9.61201 19.7683 9.45001 19.5076 9.45001 19.2222V13.1861L2.43031 4.9878C2.23986 4.76537 2.19628 4.45243 2.31871 4.18643ZM4.62955 5.25L10.7697 12.4211C10.8861 12.557 10.95 12.73 10.95 12.9089V18.7561L13.05 19.7932V12.9089C13.05 12.73 13.114 12.557 13.2303 12.4211L19.3705 5.25H4.62955Z" fill="#001C98"/>
</svg>
