<svg width="24" height="24" viewBox="0 0 24 24" fill="none" xmlns="http://www.w3.org/2000/svg">
<path fill-rule="evenodd" clip-rule="evenodd" d="M2.90918 2.61365C3.32339 2.61365 3.65918 2.94943 3.65918 3.36365V6.25H6.54556C6.95977 6.25 7.29556 6.58579 7.29556 7C7.29556 7.41422 6.95977 7.75 6.54556 7.75H2.90918C2.49497 7.75 2.15918 7.41422 2.15918 7V3.36365C2.15918 2.94943 2.49497 2.61365 2.90918 2.61365Z" fill="#616161"/>
<path fill-rule="evenodd" clip-rule="evenodd" d="M2.68922 6.62344C4.54694 3.41276 8.02048 1.25 12 1.25C17.9371 1.25 22.75 6.06294 22.75 12C22.75 17.9371 17.9371 22.75 12 22.75C6.06294 22.75 1.25 17.9371 1.25 12C1.25 11.5858 1.58579 11.25 2 11.25C2.41421 11.25 2.75 11.5858 2.75 12C2.75 17.1086 6.89136 21.25 12 21.25C17.1086 21.25 21.25 17.1086 21.25 12C21.25 6.89136 17.1086 2.75 12 2.75C8.57752 2.75 5.58816 4.60835 3.98755 7.37466C3.78011 7.73319 3.3213 7.85566 2.96277 7.64822C2.60425 7.44077 2.48178 6.98196 2.68922 6.62344Z" fill="#616161"/>
<path fill-rule="evenodd" clip-rule="evenodd" d="M12.0026 5.25C12.4168 5.25004 12.7526 5.58586 12.7526 6.00007L12.752 11.6938L16.772 15.7138C17.0649 16.0067 17.0649 16.4815 16.772 16.7744C16.4791 17.0673 16.0042 17.0673 15.7113 16.7744L11.4716 12.5347C11.331 12.3941 11.2519 12.2033 11.252 12.0043L11.2526 5.99993C11.2526 5.58571 11.5884 5.24996 12.0026 5.25Z" fill="#616161"/>
</svg>
