<svg width="24" height="24" viewBox="0 0 24 24" fill="none" xmlns="http://www.w3.org/2000/svg">
<path fill-rule="evenodd" clip-rule="evenodd" d="M1.25 10.5C1.25 5.39139 5.39139 1.25 10.5 1.25C15.6086 1.25 19.75 5.39139 19.75 10.5C19.75 15.6086 15.6086 19.75 10.5 19.75C5.39139 19.75 1.25 15.6086 1.25 10.5ZM10.5 2.75C6.21981 2.75 2.75 6.21981 2.75 10.5C2.75 14.7802 6.21981 18.25 10.5 18.25C14.7802 18.25 18.25 14.7802 18.25 10.5C18.25 6.21981 14.7802 2.75 10.5 2.75Z" fill="#001C98"/>
<path fill-rule="evenodd" clip-rule="evenodd" d="M16.0805 16.0806C16.3734 15.7877 16.8483 15.7877 17.1412 16.0806L21.3838 20.3232C21.6767 20.6161 21.6767 21.091 21.3838 21.3839C21.0909 21.6768 20.6161 21.6768 20.3232 21.3839L16.0805 17.1412C15.7876 16.8483 15.7876 16.3735 16.0805 16.0806Z" fill="#001C98"/>
</svg>
