<svg width="24" height="24" viewBox="0 0 24 24" fill="none" xmlns="http://www.w3.org/2000/svg">
<path fill-rule="evenodd" clip-rule="evenodd" d="M20.5 10.75C20.9142 10.75 21.25 11.0858 21.25 11.5V17.5C21.25 17.9142 20.9142 18.25 20.5 18.25H14.5C14.0858 18.25 13.75 17.9142 13.75 17.5C13.75 17.0857 14.0858 16.75 14.5 16.75H19.75V11.5C19.75 11.0858 20.0858 10.75 20.5 10.75Z" fill="white"/>
<path fill-rule="evenodd" clip-rule="evenodd" d="M2.52202 5.92208C2.84121 5.65809 3.31397 5.70283 3.57796 6.02202L8.33342 11.7717L12.702 9.10957C13.003 8.92618 13.391 8.97705 13.6345 9.2318L21.0422 16.9818C21.3284 17.2812 21.3177 17.756 21.0182 18.0422C20.7188 18.3284 20.2441 18.3177 19.9579 18.0182L12.9672 10.7046L8.55955 13.3905C8.24128 13.5844 7.82887 13.5152 7.59133 13.228L2.42208 6.97802C2.15809 6.65884 2.20283 6.18607 2.52202 5.92208Z" fill="white"/>
</svg>
