<svg width="24" height="24" viewBox="0 0 24 24" fill="none" xmlns="http://www.w3.org/2000/svg">
<path fill-rule="evenodd" clip-rule="evenodd" d="M13.75 7.50037C13.75 7.08615 14.0858 6.75037 14.5 6.75037H20.5C20.9142 6.75037 21.25 7.08615 21.25 7.50037V13.5004C21.25 13.9146 20.9142 14.2504 20.5 14.2504C20.0857 14.2504 19.75 13.9146 19.75 13.5004V8.25037H14.5C14.0858 8.25037 13.75 7.91458 13.75 7.50037Z" fill="white"/>
<path fill-rule="evenodd" clip-rule="evenodd" d="M21.0182 6.95796C21.3177 7.24416 21.3284 7.71891 21.0422 8.01834L13.6345 15.7683C13.391 16.0231 13.003 16.074 12.702 15.8906L8.33342 13.2284L3.57796 18.9781C3.31397 19.2973 2.84121 19.3421 2.52202 19.0781C2.20283 18.8141 2.15809 18.3413 2.42208 18.0221L7.59133 11.7721C7.82887 11.4849 8.24128 11.4157 8.55955 11.6097L12.9672 14.2956L19.9579 6.9819C20.2441 6.68247 20.7188 6.67175 21.0182 6.95796Z" fill="white"/>
</svg>
