<svg width="173" height="39" viewBox="0 0 173 39" fill="none" xmlns="http://www.w3.org/2000/svg">
<g clip-path="url(#clip0_1802_23065)">
<path d="M81.8998 19.2C82.6998 18.3 83.2998 17.2 83.6998 15.9C84.0998 14.6 84.2998 13.3 84.2998 11.9C84.2998 8.7 83.3998 6 81.5998 3.8C79.5998 1.3 76.9998 0 73.7998 0L56.2998 0.2V8.1H72.4998C73.3998 8.1 74.1998 8.5 74.7998 9.2C75.2998 9.8 75.5998 10.6 75.5998 11.6C75.5998 12.5 75.2998 13.3 74.7998 13.9C74.2998 14.6 73.4998 14.9 72.5998 14.9H65.8998V23.4H72.5998C73.5998 23.4 74.2998 23.7 74.8998 24.4C75.3998 25 75.5998 25.8 75.5998 26.7C75.5998 27.7 75.2998 28.5 74.7998 29.1C74.1998 29.8 73.4998 30.2 72.4998 30.2H56.2998V38.2H73.7998C77.0998 38.2 79.6998 37 81.5998 34.5C83.2998 32.3 84.1998 29.6 84.1998 26.5C84.1998 25.1 83.9998 23.7 83.5998 22.5C83.2998 21.3 82.6998 20.2 81.8998 19.2Z" fill="white"/>
<path d="M91.2998 0.700012H111.9V2.90001H93.5998V18.3H108.6V20.5H93.5998V36.3H111.9V38.5H91.2998V0.700012Z" fill="white"/>
<path d="M118 0.700012H129C132.5 0.700012 134.3 1.10001 135.8 1.80001C138.9 3.40001 141 6.50001 141 10.8C141 16.2 137.9 20.2 133.5 21.2V21.3C133.5 21.3 133.9 21.7 134.4 22.6L142.9 38.3H140L131.1 21.6H120.3V38.3H118V0.700012ZM130.5 19.6C135.5 19.6 138.6 16 138.6 10.9C138.6 7.60001 136.9 4.90001 134.2 3.60001C133.1 3.10001 131.9 2.80001 128.9 2.80001H120.3V19.5H130.5V19.6Z" fill="white"/>
<path d="M152.4 0.700012H163C168.6 0.700012 172.8 4.80001 172.8 11.7C172.8 18.5 168.6 22.8 163 22.8H154.4V38.4H152.4V0.700012ZM162.8 20.6C167.5 20.6 170.6 17.3 170.6 11.7C170.6 6.00001 167.5 2.90001 162.8 2.90001H154.3V20.7H162.8V20.6Z" fill="white"/>
<path d="M44.1 2.50001L42.7 28C42.7 28.7 42.6 29.2 42.4 29.4C42.2 29.6 41.9 29.8 41.3 30C41 30 40.7 30 40.5 29.8C40.2 29.5 40 28.9 39.7 28L35.5 16C34.2 12.3 33.6 11.5 31.9 10.1C30.3 8.90001 28.5 8.30001 26.3 8.30001C23.8 8.30001 21.5 9.10001 19.6 10.6C17.5 12.3 16.5 14.3 16.3 16.9L14.3 27.9C14.3 28.5 14.1 29 13.9 29.3C13.7 29.7 13.3 29.8 12.8 29.8C12.5 29.8 12.3 29.6 12 29.3C11.6 28.9 11.5 28.4 11.5 27.8L8 12.8L0 15L2.7 28C3.4 31.5 4.6 34.2 6.3 36C7.9 37.7 9.8 38.5 12 38.5C14.7 38.5 16.9 37.9 18.7 36.6C20.8 35.1 21.9 32.9 22.1 30L24.1 19.2C24.1 18.6 24.3 18 24.6 17.7C24.9 17.3 25.3 17.1 25.7 17.1C26 17.1 26.3 17.2 26.6 17.5C26.9 17.7 27.1 18.1 27.3 18.6L31 29.9C31.9 32.8 33.1 34.9 34.5 36.2C36.1 37.7 38 38.4 40.4 38.4C43.1 38.4 45.3 37.8 47.1 36.5C49.2 35 50.3 32.8 50.5 29.9L52.2 0.200012L44.1 2.50001Z" fill="white"/>
</g>
<defs>
<clipPath id="clip0_1802_23065">
<rect width="172.7" height="38.4" fill="white"/>
</clipPath>
</defs>
</svg>
